<svg width="167" height="167" viewBox="0 0 167 167" fill="none" xmlns="http://www.w3.org/2000/svg">
<g clip-path="url(#clip0_7_11)">
<path d="M52.3532 54.98L51.6966 46.4055C51.5732 44.7932 53.0959 43.5525 54.65 43.9992L62.915 46.3746C63.8463 46.6423 64.513 47.4606 64.587 48.4268L65.2436 57.0013C65.367 58.6136 63.8443 59.8542 62.2902 59.4076L54.0251 57.0321C53.0939 56.7645 52.4271 55.9461 52.3532 54.98Z" fill="#009999" stroke="#323232" stroke-width="1.70093"/>
<path d="M106.027 46.2846L114.369 44.1968C115.938 43.8042 117.416 45.0969 117.237 46.7039L116.284 55.2506C116.177 56.2136 115.482 57.0083 114.542 57.2436L106.2 59.3314C104.631 59.724 103.152 58.4313 103.331 56.8243L104.284 48.2776C104.392 47.3146 105.087 46.5199 106.027 46.2846Z" fill="#009999" stroke="#323232" stroke-width="1.70093"/>
<path d="M115.354 77.8394C115.354 95.4318 101.092 109.693 83.5 109.693C65.9077 109.693 51.6463 95.4318 51.6463 77.8394C51.6463 60.2471 65.9077 45.9857 83.5 45.9857C101.092 45.9857 115.354 60.2471 115.354 77.8394Z" fill="#009999" stroke="#323232" stroke-width="1.85556"/>
<path d="M54.1489 114.023H112.851C112.372 121.789 105.922 127.94 98.0352 127.94H68.9648C61.0781 127.94 54.6278 121.789 54.1489 114.023Z" fill="#8A392E" stroke="#323232" stroke-width="1.85556"/>
<path d="M51.9555 114.023H68.8102V121.909H57.213C54.3094 121.909 51.9555 119.555 51.9555 116.652V114.023Z" fill="#EDEDED" stroke="#323232" stroke-width="1.85556"/>
<path d="M98.1899 114.023H115.044V116.652C115.044 119.555 112.691 121.909 109.787 121.909H98.1899V114.023Z" fill="#EDEDED" stroke="#323232" stroke-width="1.85556"/>
<path d="M58.7593 71.9635H108.241C119.684 71.9635 128.961 81.2404 128.961 92.6839V95.7765C128.961 107.22 119.684 116.497 108.241 116.497H58.7593C47.3157 116.497 38.0389 107.22 38.0389 95.7765V92.6839C38.0389 81.2404 47.3158 71.9635 58.7593 71.9635Z" fill="#009999" stroke="#323232" stroke-width="1.85556"/>
<circle cx="60.3056" cy="94.2302" r="7.11296" fill="#323232"/>
<circle cx="106.694" cy="94.2302" r="7.11296" fill="#323232"/>
<path d="M62.1611 63.9228C64.5321 61.4487 69.4287 57.8922 76.6963 63.9228" stroke="#323232" stroke-width="1.70093"/>
<path d="M89.9944 63.9228C92.3654 61.4487 97.262 57.8922 104.53 63.9228" stroke="#323232" stroke-width="1.70093"/>
<path d="M82.81 132.391L71.5872 139.38L70.9069 126.635L82.81 132.391Z" fill="#FFCC66"/>
<path d="M85.5469 132.398L97.1143 125.995L97.1384 138.758L85.5469 132.398Z" fill="#FFCC66"/>
<ellipse cx="84.1572" cy="132.799" rx="2.33962" ry="3.1195" fill="#FFCC66"/>
</g>
<defs>
<clipPath id="clip0_7_11">
<rect width="167" height="167" fill="white"/>
</clipPath>
</defs>
</svg>
